<svg width="20" height="20" viewBox="0 0 20 20" xmlns="http://www.w3.org/2000/svg">
<path d="M9.95603 17.4201C10.605 17.4201 10.974 16.8251 11.289 16.1481L16.429 4.97811C16.586 4.64411 16.675 4.33611 16.675 4.06911C16.675 3.49511 16.231 3.05811 15.664 3.05811C15.397 3.05811 15.089 3.14611 14.748 3.30411L3.58403 8.43711C2.92803 8.73811 2.30603 9.11411 2.30603 9.77111C2.30603 10.5361 3.02403 10.8161 3.94603 10.8161L8.75203 10.8301C8.86203 10.8301 8.90203 10.8711 8.90203 10.9801L8.91703 15.7861C8.91703 16.6821 9.18303 17.4201 9.95603 17.4201V17.4201ZM10.297 14.7131L10.332 10.1131C10.332 9.60611 10.126 9.39511 9.60703 9.40111L5.01303 9.42911C4.95203 9.42911 4.93103 9.35411 5.00603 9.31911L14.761 4.86211C14.864 4.81411 14.911 4.87611 14.871 4.97211L10.407 14.7271C10.373 14.7951 10.297 14.7811 10.297 14.7131V14.7131Z"/>
</svg>
