<svg width="20" height="20" viewBox="0 0 20 20" xmlns="http://www.w3.org/2000/svg">
<path d="M5.15699 17.6598C6.12099 17.6598 8.06899 16.7498 9.55899 15.6838C14.433 15.7378 18.069 12.9078 18.069 9.1888C18.069 5.5798 14.481 2.6748 9.99699 2.6748C5.51899 2.6748 1.92999 5.5798 1.92999 9.1888C1.92999 11.4318 3.29699 13.4548 5.41699 14.5348C5.13699 15.0478 4.66499 15.7788 4.37099 16.1618C3.87799 16.8178 4.24799 17.6588 5.15699 17.6588V17.6598ZM5.98399 15.9298C6.29799 15.5328 6.79699 14.8838 7.07099 14.3848C7.28299 13.9878 7.18699 13.6458 6.74999 13.4408C4.71999 12.4778 3.52999 10.9388 3.52999 9.1888C3.52999 6.4758 6.39999 4.2678 9.99699 4.2678C13.599 4.2678 16.47 6.4758 16.47 9.1888C16.47 11.8958 13.6 14.1038 9.99699 14.1038C9.87999 14.1038 9.70899 14.0978 9.49699 14.0978C9.20399 14.0908 8.98499 14.1728 8.70499 14.3978C7.89099 15.0068 6.65399 15.7998 6.05899 16.0388C5.94899 16.0798 5.90899 16.0248 5.98399 15.9288V15.9298Z"/>
</svg>
