<svg width="64" height="64" viewBox="0 0 64 64" fill="rgb(69, 121, 245)" xmlns="http://www.w3.org/2000/svg">
<path stroke-width="8" d="M10.941 21.1332C12.934 21.1332 14.551 19.4932 14.551 17.5002C14.551 15.5082 12.934 13.8672 10.941 13.8672C8.92598 13.8672 7.30898 15.5072 7.30898 17.5002C7.30898 19.4922 8.92598 21.1332 10.941 21.1332ZM54.137 20.0312C55.567 20.0312 56.691 18.9302 56.691 17.5002C56.691 16.0942 55.566 14.9692 54.137 14.9692H22.473C21.043 14.9692 19.918 16.0702 19.918 17.5002C19.918 18.9302 21.043 20.0312 22.473 20.0312H54.137ZM10.94 35.7342C12.933 35.7342 14.55 34.0942 14.55 32.1022C14.55 30.1092 12.933 28.4692 10.94 28.4692C8.92498 28.4692 7.30798 30.1092 7.30798 32.1022C7.30798 34.0942 8.92498 35.7342 10.94 35.7342ZM54.136 34.6332C55.566 34.6332 56.69 33.5312 56.69 32.1022C56.69 30.6952 55.565 29.5702 54.136 29.5702H22.473C21.043 29.5702 19.918 30.6722 19.918 32.1022C19.918 33.5322 21.043 34.6322 22.473 34.6322H54.137L54.136 34.6332ZM10.94 50.3362C12.933 50.3362 14.55 48.6962 14.55 46.7032C14.55 44.7112 12.933 43.0702 10.94 43.0702C8.92498 43.0702 7.30798 44.7102 7.30798 46.7032C7.30798 48.6952 8.92498 50.3362 10.94 50.3362ZM54.136 49.2342C55.566 49.2342 56.69 48.1332 56.69 46.7042C56.69 45.2972 55.565 44.1722 54.136 44.1722H22.473C21.043 44.1722 19.918 45.2732 19.918 46.7032C19.918 48.1332 21.043 49.2342 22.473 49.2342H54.137H54.136Z" fill="#4579F5"/>
</svg>
