<svg width="64" height="64" viewBox="0 0 64 64" fill="none" xmlns="http://www.w3.org/2000/svg">
<path d="M31.988 56.6172C32.434 56.6172 33.09 56.4302 33.699 56.1022C47.316 48.8822 52.074 45.3202 52.074 36.7892V19.2812C52.074 16.1882 50.973 14.9922 48.324 13.8672C46.129 12.9472 39.05 10.4992 35.865 9.43119L35.331 9.25319L34.895 9.10919C34.004 8.80519 32.902 8.61719 31.988 8.61719C31.074 8.61719 29.996 8.85219 29.082 9.10919C26.715 9.76619 18.113 12.8592 15.652 13.8672C13.004 14.9922 11.902 16.1872 11.902 19.2812V36.7902C11.902 45.3212 16.684 48.8602 30.277 56.1032C30.887 56.4312 31.543 56.6182 31.988 56.6182V56.6172ZM31.988 51.0632C31.684 51.0632 31.402 50.9692 30.746 50.5472C20.129 44.0552 16.941 42.4372 16.941 35.9222V20.0322C16.941 19.1642 17.129 18.8122 17.785 18.5552C19.182 17.9922 21.128 17.2892 23.125 16.5842L24.125 16.2312C26.623 15.3532 29.07 14.5062 30.488 13.9612C31.168 13.7272 31.59 13.6332 31.988 13.6332C32.41 13.6332 32.832 13.7272 33.512 13.9612C36.23 15.0162 42.793 17.3122 46.192 18.5552C46.872 18.7892 47.059 19.1652 47.059 20.0312V35.9212C47.059 42.5312 43.613 44.3362 33.254 50.5472C32.598 50.9452 32.293 51.0632 31.988 51.0632V51.0632ZM29.528 42.4372C30.418 42.4372 31.215 41.9692 31.73 41.1722L42.207 25.0232C42.559 24.5082 42.817 23.9222 42.817 23.3832C42.817 22.1172 41.691 21.2272 40.473 21.2272C39.676 21.2272 38.996 21.6722 38.457 22.5392L29.457 36.8832L25.309 31.7272C24.746 31.0002 24.16 30.7422 23.41 30.7422C22.145 30.7422 21.137 31.7272 21.137 32.9922C21.137 33.6022 21.371 34.1412 21.817 34.7032L27.184 41.1952C27.864 42.0152 28.59 42.4372 29.527 42.4372H29.528Z" fill="#4579F5"/>
</svg>
