<svg width="64" height="64" viewBox="0 0 64 64" fill="none" xmlns="http://www.w3.org/2000/svg">
<path d="M49.895 57.508C54.675 57.508 57.887 54.203 57.887 49.258V42.39C57.887 40.655 56.668 39.46 54.887 39.46H52.988V14.64C52.988 9.43597 50.223 6.64697 45.043 6.64697H12.863C8.85498 6.64697 6.11298 9.43697 6.11298 13.679V18.601C6.11298 20.335 7.33198 21.531 9.11298 21.531H14.246V49.561C14.246 54.835 16.918 57.507 22.191 57.507H49.895V57.508ZM14.645 16.562H11.082V13.68C11.082 12.367 11.832 11.617 12.863 11.617C13.941 11.617 14.645 12.367 14.645 13.68V16.563V16.562ZM22.566 52.164C20.832 52.141 19.613 50.922 19.613 49.187V14.22C19.613 13.423 19.543 12.696 19.426 12.017H44.457C46.59 12.017 47.621 13.118 47.621 15.134V39.46H28.496C26.715 39.46 25.496 40.655 25.496 42.39V49.187C25.496 50.967 24.277 52.14 22.566 52.163V52.164ZM41.363 21.602C42.23 21.602 42.887 20.922 42.887 20.055C42.887 19.211 42.23 18.555 41.363 18.555H25.895C25.004 18.555 24.348 19.211 24.348 20.055C24.348 20.922 25.004 21.602 25.895 21.602H41.363ZM34.074 29.453C34.941 29.453 35.598 28.797 35.598 27.953C35.598 27.086 34.941 26.406 34.074 26.406H25.894C25.004 26.406 24.348 27.086 24.348 27.953C24.348 28.797 25.004 29.453 25.895 29.453H34.075H34.074ZM49.496 52.164H30.184C30.629 51.227 30.864 50.172 30.864 48.906V44.828H52.52V48.859C52.52 50.852 51.324 52.164 49.496 52.164V52.164Z" fill="#4579F5"/>
</svg>
