<svg width="64" height="64" viewBox="0 0 64 64" fill="none" xmlns="http://www.w3.org/2000/svg">
<path d="M46.145 54.2731C51.371 54.2731 54.16 51.4841 54.16 46.3281V17.8751C54.16 12.7191 51.371 9.95312 46.145 9.95312H17.832C12.629 9.95312 9.84003 12.7191 9.84003 17.8751V46.3281C9.84003 51.5081 12.629 54.2731 17.832 54.2731H46.145V54.2731ZM45.675 48.9061H18.325C16.285 48.9061 15.207 47.8751 15.207 45.7421V18.4611C15.207 16.3281 16.285 15.3211 18.324 15.3211H45.676C47.668 15.3211 48.793 16.3281 48.793 18.4611V45.7421C48.793 47.8751 47.668 48.9061 45.676 48.9061H45.675ZM25.425 29.8281C25.613 29.8281 25.825 29.6881 26.035 29.5701C27.746 28.5621 31.262 25.8671 31.262 22.6801C31.262 20.6881 29.879 19.2581 28.051 19.2581C26.855 19.2581 25.918 19.9841 25.402 20.9221C24.887 19.9841 23.972 19.2581 22.73 19.2581C20.95 19.2581 19.566 20.6881 19.566 22.6801C19.566 25.8671 23.082 28.4221 24.793 29.5701C25.003 29.7101 25.238 29.8281 25.426 29.8281H25.425ZM42.91 36.5081C43.777 36.5081 44.434 35.8281 44.434 34.9611C44.434 34.1411 43.777 33.4841 42.91 33.4841H21.113C20.199 33.4841 19.566 34.1411 19.566 34.9611C19.566 35.8281 20.199 36.5081 21.113 36.5081H42.91V36.5081ZM37.355 43.9611C38.223 43.9611 38.879 43.3051 38.879 42.4611C38.879 41.5941 38.223 40.9141 37.355 40.9141H21.113C20.199 40.9141 19.566 41.5941 19.566 42.4611C19.566 43.3051 20.199 43.9611 21.113 43.9611H37.355Z" fill="#4579F5"/>
</svg>
