<svg width="24" height="24" viewBox="0 0 24 24" fill="none" xmlns="http://www.w3.org/2000/svg">
<path d="M17.484 20.0779C17.891 19.7729 17.969 19.2659 17.75 18.6089L16.164 13.9139L20.204 11.0159C20.766 10.6169 21.008 10.1559 20.844 9.67189C20.68 9.18689 20.227 8.95289 19.531 8.96089L14.586 8.99989L13.078 4.27289C12.868 3.60189 12.508 3.23389 12 3.23389C11.492 3.23389 11.14 3.60189 10.922 4.27389L9.414 8.99989L4.47 8.95989C3.774 8.95289 3.321 9.18689 3.157 9.66389C2.985 10.1559 3.235 10.6169 3.797 11.0159L7.837 13.9139L6.25 18.6099C6.031 19.2669 6.11 19.7739 6.516 20.0799C6.93 20.3919 7.43 20.2899 8 19.8759L12 16.9379L16 19.8759C16.57 20.2899 17.07 20.3919 17.484 20.0789V20.0779Z" fill="#FFAB00"/>
</svg>
