<svg width="24" height="24" viewBox="0 0 24 24" fill="none" xmlns="http://www.w3.org/2000/svg">
<path d="M17.484 20.0779C17.891 19.7729 17.969 19.2659 17.75 18.6089L16.164 13.9139L20.204 11.0159C20.766 10.6169 21.008 10.1559 20.844 9.67189C20.68 9.18689 20.227 8.95289 19.531 8.96089L14.586 8.99989L13.078 4.27289C12.868 3.60189 12.508 3.23389 12 3.23389C11.492 3.23389 11.14 3.60189 10.922 4.27389L9.414 8.99989L4.47 8.95989C3.774 8.95289 3.321 9.18689 3.157 9.66389C2.985 10.1559 3.235 10.6169 3.797 11.0159L7.837 13.9139L6.25 18.6099C6.031 19.2669 6.11 19.7739 6.516 20.0799C6.93 20.3919 7.43 20.2899 8 19.8759L12 16.9379L16 19.8759C16.57 20.2899 17.07 20.3919 17.484 20.0789V20.0779ZM15.82 17.8679L12.516 15.2969C12.328 15.1409 12.164 15.0619 12 15.0699V5.95289C12.016 5.95289 12.031 5.96889 12.04 6.00789L13.203 10.0229C13.328 10.4929 13.547 10.6169 14.023 10.6019L18.203 10.4839C18.243 10.4839 18.266 10.4839 18.273 10.4999C18.273 10.5229 18.266 10.5309 18.234 10.5549L14.766 12.9149C14.344 13.1949 14.305 13.4299 14.469 13.8749L15.883 17.8129C15.891 17.8519 15.891 17.8589 15.883 17.8749C15.867 17.8979 15.852 17.8829 15.82 17.8669V17.8679Z" fill="#FFAB00"/>
</svg>
